<svg xmlns="http://www.w3.org/2000/svg" viewBox="0 0 512 512">
  <rect width="512" height="512" rx="96" fill="#2563eb"/>
  <!-- Pot body -->
  <path d="M128 224h256v144c0 35.3-28.7 64-64 64H192c-35.3 0-64-28.7-64-64V224z" fill="white"/>
  <!-- Pot rim -->
  <rect x="112" y="208" width="288" height="32" rx="8" fill="white"/>
  <!-- Pot handles -->
  <rect x="80" y="248" width="48" height="24" rx="12" fill="white"/>
  <rect x="384" y="248" width="48" height="24" rx="12" fill="white"/>
  <!-- Lid handle -->
  <rect x="224" y="144" width="64" height="24" rx="12" fill="white"/>
  <!-- Lid -->
  <ellipse cx="256" cy="176" rx="96" ry="16" fill="white"/>
  <!-- Steam lines -->
  <path d="M192 96c0-16 8-32 24-32s24 16 24 32" stroke="white" stroke-width="12" stroke-linecap="round" fill="none"/>
  <path d="M272 112c0-16 8-32 24-32s24 16 24 32" stroke="white" stroke-width="12" stroke-linecap="round" fill="none"/>
</svg>
