<svg xmlns="http://www.w3.org/2000/svg" viewBox="0 0 512 512">
  <rect width="512" height="512" rx="96" fill="#2563eb"/>
  <path d="M368 96c-44.2 0-80 35.8-80 80c0 8.8 1.4 17.3 4.1 25.2L148.1 345.2c-7.9-2.7-16.4-4.1-25.2-4.1c-44.2 0-80 35.8-80 80s35.8 80 80 80s80-35.8 80-80c0-8.8-1.4-17.3-4.1-25.2L342.8 251.9c7.9 2.7 16.4 4.1 25.2 4.1c44.2 0 80-35.8 80-80s-35.8-80-80-80zM122.9 448c-17.7 0-32-14.3-32-32s14.3-32 32-32s32 14.3 32 32s-14.3 32-32 32zm245.1-224c-17.7 0-32-14.3-32-32s14.3-32 32-32s32 14.3 32 32s-14.3 32-32 32z" fill="white"/>
</svg>
